<svg width="39" height="17" viewBox="0 0 39 17" fill="none" xmlns="http://www.w3.org/2000/svg">
<path d="M3.98412 8L3.73512 6.73143H1.86163L1.61262 8H0L1.60076 0H4.05527L5.57303 8H3.98412ZM2.77466 1.48571L2.31222 4.14857L2.05135 5.50857H3.53354L3.26082 4.14857L2.79837 1.48571H2.77466Z" fill="white"/>
<path d="M7.76945 0V8H6.20426V0H7.76945Z" fill="white"/>
<path d="M11.6442 5.36H10.3754C10.2094 5.5581 10.1264 5.80571 10.1264 6.10286C10.1264 6.4 10.2134 6.63238 10.3873 6.8H11.6442V5.36ZM9.09481 2.16H12.0355C12.5098 2.43429 12.822 2.75048 12.9722 3.10857C13.1224 3.45905 13.1975 3.93905 13.1975 4.54857V6.26286C13.1975 6.89524 13.2133 7.47429 13.2449 8H11.8932L11.6797 7.58857C11.3714 7.86286 10.9367 8 10.3754 8H9.62839C8.95647 7.57333 8.62051 6.96 8.62051 6.16C8.62051 5.35238 8.96437 4.71619 9.65211 4.25143H10.7667C11.075 4.25143 11.3635 4.34286 11.6323 4.52571V3.95429C11.6323 3.65714 11.4979 3.45905 11.2292 3.36H9.09481V2.16Z" fill="white"/>
<path d="M18.8062 8H17.6086L17.3952 7.58857C17.2212 7.74095 17.0552 7.84762 16.8971 7.90857C16.7469 7.96952 16.5177 8 16.2094 8H15.1778C14.83 7.68 14.5533 7.26095 14.3478 6.74286C14.1502 6.22476 14.0513 5.64571 14.0513 5.00571C14.0513 4.3581 14.1502 3.80952 14.3478 3.36C14.5533 2.91048 14.8418 2.51048 15.2134 2.16H16.2331C16.6521 2.16 16.9841 2.26667 17.2292 2.48V0H18.8062V8ZM17.2292 3.36H16.0908C15.7983 3.84 15.6521 4.43048 15.6521 5.13143C15.6521 5.82476 15.7944 6.38095 16.079 6.8H17.2292V3.36Z" fill="white"/>
<path d="M24.4107 8H23.2131L22.9997 7.58857C22.8258 7.74095 22.6598 7.84762 22.5017 7.90857C22.3515 7.96952 22.1222 8 21.8139 8H20.7823C20.4345 7.68 20.1578 7.26095 19.9523 6.74286C19.7547 6.22476 19.6559 5.64571 19.6559 5.00571C19.6559 4.3581 19.7547 3.80952 19.9523 3.36C20.1578 2.91048 20.4464 2.51048 20.8179 2.16H21.8377C22.2566 2.16 22.5886 2.26667 22.8337 2.48V0H24.4107V8ZM22.8337 3.36H21.6954C21.4029 3.84 21.2566 4.43048 21.2566 5.13143C21.2566 5.82476 21.3989 6.38095 21.6835 6.8H22.8337V3.36Z" fill="white"/>
<path d="M25.4264 8V2.16H26.9916V8H25.4264ZM25.4264 0H26.9916V1.54286H25.4264V0Z" fill="white"/>
<path d="M30.641 2.16H31.8979C32.2457 2.58667 32.4829 3.01333 32.6094 3.44C32.7359 3.86667 32.7991 4.4 32.7991 5.04V8H31.222V4.92571C31.222 4.20191 31.1193 3.68 30.9137 3.36H29.5857V8H28.0087V2.16H29.2418L29.4553 2.57143C29.6292 2.41905 29.7912 2.31238 29.9414 2.25143C30.0995 2.19048 30.3327 2.16 30.641 2.16Z" fill="white"/>
<path d="M33.2084 2.52571L33.0899 0H34.4061L34.2875 2.52571H33.2084Z" fill="white"/>
<path d="M35.2135 2.16H37.834V3.36H35.9842L37.1107 4.97143C37.6166 5.66476 37.8972 6.14095 37.9526 6.4C37.9842 6.5219 38 6.64762 38 6.77714C38 7.3181 37.7905 7.72571 37.3715 8H34.3479V6.8H36.5178L35.2491 5.00571C35.1937 4.92191 35.1068 4.80381 34.9882 4.65143C34.8775 4.49905 34.7906 4.37714 34.7273 4.28571C34.6641 4.18667 34.6206 4.11429 34.5969 4.06857C34.5732 4.02286 34.5416 3.96571 34.502 3.89714C34.4625 3.82095 34.4348 3.75619 34.419 3.70286C34.3874 3.5581 34.3716 3.44 34.3716 3.34857C34.3716 2.79238 34.6522 2.39619 35.2135 2.16Z" fill="white"/>
<path d="M1.93224 10.04H0V8.59998H38.1134V10.04H3.56424V17H1.93224V10.04Z" fill="#FFCD1E"/>
<path d="M5.54386 17V10.868H6.68386L6.98386 11.516C7.30386 11.084 7.70786 10.868 8.19586 10.868H8.66386V12.476H7.13986V17H5.54386Z" fill="#FFCD1E"/>
<path d="M11.9015 12.128H11.0015C10.8815 12.272 10.7815 12.472 10.7015 12.728C10.6295 12.984 10.5935 13.232 10.5935 13.472H12.3095C12.3255 13.232 12.2935 12.984 12.2135 12.728C12.1335 12.464 12.0295 12.264 11.9015 12.128ZM13.5335 15.74V17H10.4855C9.92552 16.624 9.52952 16.16 9.29752 15.608C9.07352 15.048 8.96152 14.484 8.96152 13.916C8.96152 12.604 9.45752 11.588 10.4495 10.868H12.3935C12.9295 11.26 13.2935 11.676 13.4855 12.116C13.6775 12.556 13.7735 13 13.7735 13.448C13.7735 13.896 13.7375 14.28 13.6655 14.6H10.6775C10.7015 14.784 10.7695 14.996 10.8815 15.236C11.0015 15.468 11.1295 15.636 11.2655 15.74H13.5335Z" fill="#FFCD1E"/>
<path d="M17.4707 14.228H16.1867C16.0187 14.436 15.9347 14.696 15.9347 15.008C15.9347 15.32 16.0227 15.564 16.1987 15.74H17.4707V14.228ZM14.8907 10.868H17.8667C18.3467 11.156 18.6627 11.488 18.8147 11.864C18.9667 12.232 19.0427 12.736 19.0427 13.376V15.176C19.0427 15.84 19.0587 16.448 19.0907 17H17.7227L17.5067 16.568C17.1947 16.856 16.7547 17 16.1867 17H15.4307C14.7507 16.552 14.4107 15.908 14.4107 15.068C14.4107 14.22 14.7587 13.552 15.4547 13.064H16.5827C16.8947 13.064 17.1867 13.16 17.4587 13.352V12.752C17.4587 12.44 17.3227 12.232 17.0507 12.128H14.8907V10.868Z" fill="#FFCD1E"/>
<path d="M20.6748 10.868H23.3268V12.128H21.4548L22.5948 13.82C23.1068 14.548 23.3908 15.048 23.4468 15.32C23.4788 15.448 23.4948 15.58 23.4948 15.716C23.4948 16.284 23.2828 16.712 22.8588 17H19.7988V15.74H21.9948L20.7108 13.856C20.6548 13.768 20.5668 13.644 20.4468 13.484C20.3348 13.324 20.2468 13.196 20.1828 13.1C20.1188 12.996 20.0748 12.92 20.0508 12.872C20.0268 12.824 19.9948 12.764 19.9548 12.692C19.9148 12.612 19.8868 12.544 19.8708 12.488C19.8388 12.336 19.8228 12.212 19.8228 12.116C19.8228 11.532 20.1068 11.116 20.6748 10.868Z" fill="#FFCD1E"/>
<path d="M26.277 17H25.017C24.665 16.552 24.425 16.104 24.297 15.656C24.169 15.208 24.105 14.648 24.105 13.976V10.868H25.701V14.096C25.701 14.824 25.845 15.372 26.133 15.74H27.249V10.868H28.845V17H27.585L27.369 16.568C27.065 16.856 26.701 17 26.277 17Z" fill="#FFCD1E"/>
<path d="M29.8837 17V10.868H31.0237L31.3237 11.516C31.6437 11.084 32.0477 10.868 32.5357 10.868H33.0037V12.476H31.4797V17H29.8837Z" fill="#FFCD1E"/>
<path d="M36.2414 12.128H35.3414C35.2214 12.272 35.1214 12.472 35.0414 12.728C34.9694 12.984 34.9334 13.232 34.9334 13.472H36.6494C36.6654 13.232 36.6334 12.984 36.5534 12.728C36.4734 12.464 36.3694 12.264 36.2414 12.128ZM37.8734 15.74V17H34.8254C34.2654 16.624 33.8694 16.16 33.6374 15.608C33.4134 15.048 33.3014 14.484 33.3014 13.916C33.3014 12.604 33.7974 11.588 34.7894 10.868H36.7334C37.2694 11.26 37.6334 11.676 37.8254 12.116C38.0174 12.556 38.1134 13 38.1134 13.448C38.1134 13.896 38.0774 14.28 38.0054 14.6H35.0174C35.0414 14.784 35.1094 14.996 35.2214 15.236C35.3414 15.468 35.4694 15.636 35.6054 15.74H37.8734Z" fill="#FFCD1E"/>
</svg>
